<svg xmlns="http://www.w3.org/2000/svg" width="18" height="18" viewBox="0 0 18 18">
  <metadata><?xpacket begin="﻿" id="W5M0MpCehiHzreSzNTczkc9d"?>
<x:xmpmeta xmlns:x="adobe:ns:meta/" x:xmptk="Adobe XMP Core 5.6-c138 79.159824, 2016/09/14-01:09:01        ">
   <rdf:RDF xmlns:rdf="http://www.w3.org/1999/02/22-rdf-syntax-ns#">
      <rdf:Description rdf:about=""/>
   </rdf:RDF>
</x:xmpmeta>
                                                                                                    
                                                                                                    
                                                                                                    
                                                                                                    
                                                                                                    
                                                                                                    
                                                                                                    
                                                                                                    
                                                                                                    
                                                                                                    
                                                                                                    
                                                                                                    
                                                                                                    
                                                                                                    
                                                                                                    
                                                                                                    
                                                                                                    
                                                                                                    
                                                                                                    
                                                                                                    
                           
<?xpacket end="w"?></metadata>
<defs>
    <style>
      .cls-1 {
        fill: #333;
        fill-rule: evenodd;
      }
    </style>
  </defs>
  <path id="语言" class="cls-1" d="M1356,39a9,9,0,1,1-9,9,9,9,0,0,1,9-9h0Zm2.98,9.75h-5.96c0.16,3.828,1.57,6.75,2.98,6.75s2.82-2.922,2.98-6.75h0Zm-7.47,0h-2.97a7.488,7.488,0,0,0,4.51,6.148,13.67,13.67,0,0,1-1.54-6.148h0Zm11.95,0h-2.97a13.665,13.665,0,0,1-1.54,6.148,7.486,7.486,0,0,0,4.51-6.148h0ZM1353.05,41.1l-0.08.036a7.49,7.49,0,0,0-4.43,6.112h2.97a13.666,13.666,0,0,1,1.54-6.148h0Zm2.95-.6-0.06,0c-1.38.077-2.76,2.971-2.92,6.748h5.96c-0.16-3.828-1.57-6.75-2.98-6.75h0Zm2.95,0.6,0.05,0.1a13.692,13.692,0,0,1,1.48,6.053h2.98a7.488,7.488,0,0,0-4.51-6.148h0Zm0,0" transform="translate(-1347 -39)"/>
</svg>
