<svg xmlns="http://www.w3.org/2000/svg" width="17" height="15" viewBox="0 0 17 15">
  <defs>
    <style>
      .cls-1 {
        fill: #333;
        fill-rule: evenodd;
      }
    </style>
  </defs>
  <path id="钱包" class="cls-1" d="M1436.76,43.914h-4.38V43.723A2.656,2.656,0,0,0,1429.67,41h-4.96a2.716,2.716,0,0,0-2.71,2.723V53.755A2.239,2.239,0,0,0,1424.24,56h12.52a2.239,2.239,0,0,0,2.24-2.245V46.112a2.23,2.23,0,0,0-2.24-2.2h0Zm-13.33-.191a1.28,1.28,0,0,1,1.28-1.29h4.96a1.28,1.28,0,0,1,1.28,1.29v0.191h-7.52V43.723Zm13.33,10.844h-12.52a0.8,0.8,0,0,1-.81-0.812V45.347h13.33a0.8,0.8,0,0,1,.81.812v1.1h-4.05a2.62,2.62,0,0,0-2.62,2.627v0.191a2.622,2.622,0,0,0,2.62,2.627h4.05v1.051a0.8,0.8,0,0,1-.81.812h0Zm0.72-5.876v2.58h-3.96a1.184,1.184,0,0,1-1.19-1.194V49.933a1.185,1.185,0,0,1,1.19-1.194h3.96V48.691Zm0,0" transform="translate(-1422 -41)"/>
</svg>
