<svg xmlns="http://www.w3.org/2000/svg" width="105" height="18" viewBox="0 0 105 18">
  <defs>
    <style>
      .cls-1 {
        fill: #ffa800;
        fill-rule: evenodd;
      }
    </style>
  </defs>
  <path id="BNB" class="cls-1" d="M1443.08,118.757l4.89-2.757,4.89,2.757-1.79,1.018-3.1-1.738-3.09,1.738Zm9.78,3.477-1.79-1.019-3.1,1.739-3.09-1.739-1.8,1.019v2.037l3.09,1.739v3.477l1.8,1.018,1.8-1.018V126.01l3.09-1.739v-2.037Zm0,5.514v-2.037l-1.79,1.019v2.037Zm1.28,0.72-3.09,1.739v2.037l4.89-2.757v-5.514l-1.8,1.018v3.477Zm-1.8-7.973,1.8,1.019v2.037l1.8-1.018V120.5l-1.8-1.018Zm-6.17,10.449v2.037l1.8,1.019,1.8-1.019v-2.037l-1.8,1.019Zm-3.09-3.2,1.8,1.019V126.73l-1.8-1.019v2.037Zm3.09-7.253,1.8,1.019,1.8-1.019-1.8-1.018Zm-4.37,1.019,1.8-1.019-1.8-1.018L1440,120.5v2.038l1.8,1.018v-2.037Zm0,3.477-1.8-1.018v5.514l4.89,2.757v-2.037l-3.09-1.739v-3.477Zm28.33,2.305v-0.029a2.466,2.466,0,0,0-1.92-2.461,2.332,2.332,0,0,0,1.35-2.161v-0.029c0-1.574-1.3-2.59-3.39-2.59h-4.77v10.018h4.89C1468.6,130.044,1470.13,129.128,1470.13,127.3Zm-2.82-4.279c0,0.744-.63,1.059-1.63,1.059h-2.08v-2.118h2.23c0.95,0,1.48.372,1.48,1.03v0.029Zm0.57,4.007c0,0.744-.6,1.088-1.59,1.088h-2.69v-2.2h2.61c1.16,0,1.67.415,1.67,1.088v0.028Zm13.37,3.02V120.026h-2.23v6.168l-4.81-6.168h-2.08v10.018h2.23v-6.369l4.97,6.369h1.92Zm11.34-2.748v-0.029a2.466,2.466,0,0,0-1.92-2.461,2.324,2.324,0,0,0,1.34-2.161v-0.029c0-1.574-1.29-2.59-3.38-2.59h-4.77v10.018h4.88C1491.06,130.044,1492.59,129.128,1492.59,127.3Zm-2.82-4.279c0,0.744-.63,1.059-1.63,1.059h-2.08v-2.118h2.23c0.95,0,1.48.372,1.48,1.03v0.029Zm0.57,4.007c0,0.744-.6,1.088-1.6,1.088h-2.68v-2.2h2.61c1.16,0,1.67.415,1.67,1.088v0.028Zm15.86,1.25-1.16-1.145a4.074,4.074,0,0,1-2.95,1.3,3.568,3.568,0,0,1,0-7.127,4.124,4.124,0,0,1,2.87,1.245l1.16-1.3a5.409,5.409,0,0,0-4.02-1.56,5.182,5.182,0,1,0-.07,10.362A5.381,5.381,0,0,0,1506.2,128.274Zm8.74-2.619v4.222h1.8V119.859h-1.8v4.165h-4.9v-4.165h-1.8v10.018h1.8v-4.222h4.9Zm9.89-5.867h-1.67l-4.52,10.089h1.85l1.06-2.419h4.85l1.04,2.419h1.91Zm0.91,6.11h-3.53l1.76-4.007Zm5.62-6.039v10.018h1.8V119.859h-1.8Zm11.87,6.927-5.5-6.927h-1.67v10.018h1.77V122.75l5.66,7.127H1545V119.859h-1.77v6.927Z" transform="translate(-1440 -116)"/>
</svg>
