<svg xmlns="http://www.w3.org/2000/svg" width="20" height="14" viewBox="0 0 20 14">
  <defs>
    <style>
      .cls-1 {
        fill: #5865f2;
        fill-rule: evenodd;
      }
    </style>
  </defs>
  <path id="_02" data-name="02" class="cls-1" d="M477.8,808.005l-0.016.016,0.044-.016H477.8Zm0.04,0-0.012,0h0.013v0Zm-0.077.028h0.013l0.008-.008Zm4.725,1.746a8.247,8.247,0,0,0-4.712-1.746l-0.254.253a11.049,11.049,0,0,1,4.231,2.131,14.856,14.856,0,0,0-5.15-1.576,14.031,14.031,0,0,0-3.405,0h-0.275a12.183,12.183,0,0,0-3.866,1.019c-0.642.281-1.011,0.465-1.011,0.465a9.8,9.8,0,0,1,4.416-2.13L472.278,808a8.23,8.23,0,0,0-4.783,1.76,21.81,21.81,0,0,0-2.483,9.729,5.994,5.994,0,0,0,5.149,2.5s0.551-.738,1.108-1.388a5.446,5.446,0,0,1-2.944-1.946,4.761,4.761,0,0,1,.461.277h0.082a0.11,0.11,0,0,1,.083.042v0.008a0.105,0.105,0,0,0,.082.042c0.454,0.188.908,0.374,1.279,0.554a11.237,11.237,0,0,0,2.477.743,14.035,14.035,0,0,0,4.416,0,12.618,12.618,0,0,0,2.476-.742,19.813,19.813,0,0,0,1.922-1.021,5.469,5.469,0,0,1-3.034,1.945c0.454,0.646,1.094,1.386,1.094,1.386a7.164,7.164,0,0,0,5.324-2.391A21.766,21.766,0,0,0,482.49,809.775Zm-10.671,8.053a1.855,1.855,0,0,1,0-3.7l0,0A1.857,1.857,0,0,1,471.819,817.828Zm6.255,0a1.855,1.855,0,0,1,0-3.7v0A1.857,1.857,0,0,1,478.074,817.828Z" transform="translate(-465 -808)"/>
</svg>
