<svg xmlns="http://www.w3.org/2000/svg" width="18" height="15" viewBox="0 0 18 15">
  <defs>
    <style>
      .cls-1 {
        fill: #1296db;
        fill-rule: evenodd;
      }
    </style>
  </defs>
  <path id="_04" data-name="04" class="cls-1" d="M591.231,822.086l2.716-12.717a1.2,1.2,0,0,0-.194-1.156,0.845,0.845,0,0,0-.951-0.128L576.84,814.2a1.621,1.621,0,0,0-.729.459,0.394,0.394,0,0,0-.047.486,1.007,1.007,0,0,0,.591.358l4.083,1.267,9.477-5.928a0.525,0.525,0,0,1,.591-0.11c0.087,0.061.062,0.153-.073,0.275l-7.667,6.882-0.3,4.184a1.19,1.19,0,0,0,.832-0.4l2-1.908,4.138,3.027q1.182,0.662,1.5-.7h0Z" transform="translate(-576 -808)"/>
</svg>
