<svg xmlns="http://www.w3.org/2000/svg" width="17.969" height="16" viewBox="0 0 17.969 16">
  <defs>
    <style>
      .cls-1 {
        fill: #2e87ec;
        fill-rule: evenodd;
      }
    </style>
  </defs>
  <path id="_01" data-name="01" class="cls-1" d="M412.782,815.838a10.8,10.8,0,0,0,2.861,2.185l-2.117.028a4.487,4.487,0,0,0,.978,1.22,9.738,9.738,0,0,0,2.916,1.449,15.579,15.579,0,0,1-2.572,1.5,10.881,10.881,0,0,1-2.7.513c-0.916.056,2.452,1.573,6.215,1.191a10.812,10.812,0,0,0,8.364-5.221,13.129,13.129,0,0,0,1.829-6.953s0.22-.258.754-0.763a5.122,5.122,0,0,0,.688-0.753l-1.329.148,0.865-1.594s-0.527.248-.892,0.389-0.854.276-.854,0.276A4.113,4.113,0,0,0,424.834,808a3.809,3.809,0,0,0-1.774.46c-2.806,1.445-1.9,4.7-1.9,4.7a11.554,11.554,0,0,1-5.23-1.393c-2.834-1.466-3.523-2.8-3.523-2.8a3.944,3.944,0,0,0-.244,2.27,9.629,9.629,0,0,0,1.546,3.371l-1.619-.674a4.587,4.587,0,0,0,.689,1.9h0Z" transform="translate(-412.031 -808)"/>
</svg>
