<svg xmlns="http://www.w3.org/2000/svg" width="18" height="13.031" viewBox="0 0 18 13.031">
  <defs>
    <style>
      .cls-1 {
        fill: #dd1829;
        fill-rule: evenodd;
      }
    </style>
  </defs>
  <path id="_03" data-name="03" class="cls-1" d="M536.545,809.369l-1.194-.122a52.628,52.628,0,0,0-10.751,0l-1.146.122A2.756,2.756,0,0,0,521,812.145v6.675a2.756,2.756,0,0,0,2.454,2.776l1.2,0.122a52.771,52.771,0,0,0,10.751,0l1.145-.122A2.757,2.757,0,0,0,539,818.82v-6.675a2.757,2.757,0,0,0-2.455-2.776h0Zm-4.091,6.618-3.182,2.117a0.615,0.615,0,0,1-.909-0.5v-4.233a0.612,0.612,0,0,1,.327-0.539,0.619,0.619,0,0,1,.631.034l3.183,2.117a0.6,0.6,0,0,1,0,1.009h-0.05Zm0,0" transform="translate(-521 -808.969)"/>
</svg>
